<mxfile host="65bd71144e">
    <diagram id="IEfj9Nkt6mXLKzM7dppg" name="第 1 页">
        <mxGraphModel dx="2086" dy="1921" grid="1" gridSize="10" guides="1" tooltips="1" connect="1" arrows="1" fold="1" page="1" pageScale="1" pageWidth="827" pageHeight="1169" math="0" shadow="0">
            <root>
                <mxCell id="0"/>
                <mxCell id="1" parent="0"/>
                <mxCell id="102" style="edgeStyle=orthogonalEdgeStyle;rounded=0;orthogonalLoop=1;jettySize=auto;html=1;entryX=0.5;entryY=0;entryDx=0;entryDy=0;labelBackgroundColor=none;fontColor=#000000;strokeColor=#FFE6CC;" edge="1" parent="1" source="2" target="85">
                    <mxGeometry relative="1" as="geometry"/>
                </mxCell>
                <mxCell id="111" style="edgeStyle=orthogonalEdgeStyle;rounded=0;orthogonalLoop=1;jettySize=auto;html=1;labelBackgroundColor=none;fontColor=#000000;strokeColor=#FFE6CC;entryX=0.5;entryY=0;entryDx=0;entryDy=0;" edge="1" parent="1" source="2" target="110">
                    <mxGeometry relative="1" as="geometry">
                        <mxPoint x="240" y="-40" as="targetPoint"/>
                    </mxGeometry>
                </mxCell>
                <mxCell id="112" style="edgeStyle=orthogonalEdgeStyle;rounded=0;orthogonalLoop=1;jettySize=auto;html=1;labelBackgroundColor=none;fontColor=#000000;strokeColor=#FFE6CC;entryX=0.5;entryY=0;entryDx=0;entryDy=0;" edge="1" parent="1" source="2" target="100">
                    <mxGeometry relative="1" as="geometry">
                        <mxPoint x="-160" y="-10" as="targetPoint"/>
                    </mxGeometry>
                </mxCell>
                <mxCell id="2" value="&lt;div style=&quot;font-family: &amp;#34;consolas&amp;#34; , &amp;#34;courier new&amp;#34; , monospace ; font-size: 14px ; line-height: 19px&quot;&gt;&lt;span style=&quot;background-color: rgb(255 , 255 , 255)&quot;&gt;&lt;font color=&quot;#000000&quot;&gt;Demolition&lt;/font&gt;&lt;/span&gt;&lt;/div&gt;&lt;div style=&quot;color: rgb(212 , 212 , 212) ; font-family: &amp;#34;consolas&amp;#34; , &amp;#34;courier new&amp;#34; , monospace ; font-size: 14px ; line-height: 19px&quot;&gt;&lt;span style=&quot;background-color: rgb(0 , 0 , 0)&quot;&gt;&lt;br&gt;&lt;/span&gt;&lt;/div&gt;" style="rounded=0;whiteSpace=wrap;html=1;fillColor=#f5f5f5;fontColor=#333333;align=center;" parent="1" vertex="1">
                    <mxGeometry x="-90" y="-120" width="110" height="50" as="geometry"/>
                </mxCell>
                <mxCell id="83" value="&lt;table border=&quot;1&quot; width=&quot;100%&quot; cellpadding=&quot;4&quot; style=&quot;width: 100% ; height: 100% ; border-collapse: collapse&quot;&gt;&lt;tbody&gt;&lt;tr&gt;&lt;th style=&quot;text-align: center&quot;&gt;&lt;span style=&quot;color: rgb(0 , 0 , 0)&quot;&gt;&lt;font style=&quot;font-size: 20px&quot;&gt;APP&lt;/font&gt;&lt;/span&gt;&lt;br&gt;&lt;/th&gt;&lt;/tr&gt;&lt;tr style=&quot;font-size: 13px&quot;&gt;&lt;td&gt;&lt;span style=&quot;color: rgb(0 , 0 , 0)&quot;&gt;&lt;u&gt;+levelOnePass: boolean &amp;lt;static&amp;gt;&lt;/u&gt;&lt;br&gt;&lt;u&gt;+WIDTH: int&amp;nbsp;&lt;/u&gt;&lt;br&gt;&lt;u&gt;+HEIGHT: int&amp;nbsp;&lt;/u&gt;&lt;br&gt;&lt;u&gt;+FPS: int&amp;nbsp;&lt;/u&gt;&lt;br&gt;&lt;u&gt;+emptyImage: PImage&lt;/u&gt;&lt;br&gt;&lt;u&gt;+mapObstacle: HashMap&amp;lt;String,String&amp;gt;&lt;/u&gt;&lt;br&gt;&lt;u&gt;+mapInverseObstacle: HashMap&amp;lt;String,String&amp;gt;&lt;/u&gt;&lt;br&gt;&lt;u&gt;+broken: ArrayList&amp;lt;Broken&amp;gt;&lt;/u&gt;&lt;br&gt;&lt;u&gt;+empty: ArrayList&amp;lt;Empty&amp;gt;&amp;nbsp;&lt;/u&gt;&lt;br&gt;&lt;u&gt;+leftImage: ArrayList&amp;lt;PImage&amp;gt;&lt;/u&gt;&lt;br&gt;&lt;u&gt;+rightImage: ArrayList&amp;lt;PImage&amp;gt;&amp;nbsp;&lt;/u&gt;&lt;br&gt;&lt;u&gt;+upImage: ArrayList&amp;lt;PImage&amp;gt;&amp;nbsp;&lt;/u&gt;&lt;br&gt;&lt;u&gt;+downImage: ArrayList&amp;lt;PImage&amp;gt;&amp;nbsp;&lt;/u&gt;&lt;br&gt;&lt;u&gt;+redLeftImage: ArrayList&amp;lt;PImage&amp;gt;&amp;nbsp;&lt;/u&gt;&lt;br&gt;&lt;u&gt;+redRightImage: ArrayList&amp;lt;PImage&amp;gt;&lt;/u&gt;&lt;br&gt;&lt;u&gt;+redUpImage: ArrayList&amp;lt;PImage&amp;gt;&amp;nbsp;&lt;/u&gt;&lt;br&gt;&lt;u&gt;+redDownImage: ArrayList&amp;lt;PImage&amp;gt;&amp;nbsp;&lt;/u&gt;&lt;br&gt;&lt;u&gt;+yellowLeftImage: ArrayList&amp;lt;PImage&amp;gt;&lt;/u&gt;&lt;br&gt;&lt;u&gt;+yellowRightImage: ArrayList&amp;lt;PImage&amp;gt; &lt;/u&gt;&lt;br&gt;&lt;u&gt;+yellowDownImage: ArrayList&amp;lt;PImage&amp;gt;&amp;nbsp;&lt;/u&gt;&lt;br&gt;&lt;u&gt;+yellowUpImage: ArrayList&amp;lt;PImage&amp;gt;&amp;nbsp;&lt;/u&gt;&lt;br&gt;&lt;u&gt;+fullFileName: String&lt;/u&gt;&lt;br&gt;&lt;u&gt;+levelOneFilePath: String&amp;nbsp;&lt;/u&gt;&lt;br&gt;&lt;u&gt;+levelTwoFilePath: String&lt;/u&gt;&lt;br&gt;&lt;u&gt;+levelOneTime: int&lt;/u&gt;&lt;br&gt;&lt;u&gt;+levelTwoTime: int&lt;/u&gt;&lt;br&gt;&lt;u&gt;+lives: int&lt;/u&gt;&lt;/span&gt;&lt;font color=&quot;#000000&quot; style=&quot;font-size: 13px&quot;&gt;&lt;br&gt;&lt;u&gt;-wallImage: PImage&lt;br&gt;-brokenImage: PImage&lt;br&gt;-goalImage: PImage&lt;br&gt;-mapOrion: ArrayList&amp;lt;String&amp;gt;&lt;br&gt;-solid: ArrayList&amp;lt;Solid&amp;gt;&lt;br&gt;-goal: ArrayList&amp;lt;Goal&amp;gt;&lt;br&gt;-redTimeCounter: int&lt;br&gt;-dropBomb: Bomb&lt;br&gt;-graphicNum: int&lt;br&gt;-timeLimitCounter: int&lt;br&gt;&lt;/u&gt;-font: PFont&lt;br&gt;-redGraphicNum: int&lt;br&gt;-yellowGraphicNum; int&lt;br&gt;-timeCounter:int&lt;br&gt;-previous: String&lt;br&gt;-playerIcon: PImage&lt;br&gt;-clockIcon: PImage&lt;br&gt;-playerIcons: Icons&lt;br&gt;-clockIcons: Icons&lt;br&gt;&lt;/font&gt;&lt;font color=&quot;#000000&quot; style=&quot;font-size: 13px&quot;&gt;+keyCounter: int&lt;/font&gt;&lt;font color=&quot;#000000&quot; style=&quot;font-size: 11px&quot;&gt;&lt;br&gt;&lt;br&gt;&lt;br&gt;&lt;br&gt;&lt;/font&gt;&lt;/td&gt;&lt;/tr&gt;&lt;tr&gt;&lt;td&gt;&lt;font color=&quot;#000000&quot;&gt;+App()&lt;br&gt;+settings(): void&lt;br&gt;+setup(): void&lt;br&gt;+draw(): void&lt;br&gt;+getMapOrin(): ArrayList&amp;lt;String&amp;gt;&lt;br&gt;+keyPressed(): void&lt;br&gt;+keyReleased(): void&lt;br&gt;&lt;u&gt;+restart(): void&lt;br&gt;+secondLevel(): void&lt;br&gt;+restart(): void&lt;/u&gt;&lt;br&gt;&lt;br&gt;&lt;br&gt;&lt;/font&gt;&lt;/td&gt;&lt;/tr&gt;&lt;/tbody&gt;&lt;/table&gt;" style="text;html=1;strokeColor=#d6b656;fillColor=#fff2cc;overflow=fill;shadow=0;labelBackgroundColor=none;" parent="1" vertex="1">
                    <mxGeometry x="-700" y="110" width="280" height="890" as="geometry"/>
                </mxCell>
                <mxCell id="86" style="edgeStyle=orthogonalEdgeStyle;rounded=0;orthogonalLoop=1;jettySize=auto;html=1;entryX=0.5;entryY=0;entryDx=0;entryDy=0;labelBackgroundColor=none;noLabel=1;fontColor=none;strokeColor=#FFE6CC;" edge="1" parent="1" source="85" target="83">
                    <mxGeometry relative="1" as="geometry"/>
                </mxCell>
                <mxCell id="88" style="edgeStyle=orthogonalEdgeStyle;rounded=0;orthogonalLoop=1;jettySize=auto;html=1;entryX=0.5;entryY=0;entryDx=0;entryDy=0;labelBackgroundColor=none;fontColor=none;strokeColor=#FFE6CC;" edge="1" parent="1" source="85" target="87">
                    <mxGeometry relative="1" as="geometry"/>
                </mxCell>
                <mxCell id="85" value="&lt;font color=&quot;#000000&quot;&gt;PApplet&lt;/font&gt;" style="whiteSpace=wrap;html=1;shadow=0;labelBackgroundColor=none;strokeColor=#d6b656;strokeWidth=1;fillColor=#fff2cc;" vertex="1" parent="1">
                    <mxGeometry x="-490" width="120" height="60" as="geometry"/>
                </mxCell>
                <mxCell id="87" value="&lt;table border=&quot;1&quot; width=&quot;100%&quot; cellpadding=&quot;4&quot; style=&quot;width: 100% ; height: 100% ; border-collapse: collapse&quot;&gt;&lt;tbody&gt;&lt;tr&gt;&lt;th style=&quot;text-align: center&quot;&gt;&lt;span style=&quot;color: rgb(0 , 0 , 0)&quot;&gt;&lt;font style=&quot;font-size: 20px&quot;&gt;Bomb&lt;/font&gt;&lt;/span&gt;&lt;br&gt;&lt;/th&gt;&lt;/tr&gt;&lt;tr&gt;&lt;td style=&quot;font-size: 13px&quot;&gt;&lt;font color=&quot;#000000&quot; style=&quot;font-size: 13px&quot;&gt;-x: int&lt;br&gt;-y: int&lt;br&gt;-sprite: PImage&lt;br&gt;-bombState: int&lt;br&gt;-isFinished: boolean&lt;br&gt;-timeCounter: int&lt;br&gt;-explosionTime: int&lt;br&gt;-close: boolean&lt;br&gt;-leftOneHitted: boolean&lt;br&gt;-isSolid: boolean&lt;br&gt;-leftTwoHitted: boolean&lt;br&gt;-left2isSolid: boolean&lt;br&gt;-leftAccessCounter: int&lt;br&gt;-rightOneHitted: boolean&lt;br&gt;-right1isSolid: boolean&lt;br&gt;-rightAccessCounter: int&lt;br&gt;-rightTwoHitted: boolean&lt;br&gt;-right2isSolid: boolean&lt;br&gt;-downOneHitted: boolean&lt;br&gt;-down1isSolid: boolean&lt;br&gt;-downAccessCounter: int&lt;br&gt;-downTwoHitted: boolean&lt;br&gt;-down2isSolid: boolean&lt;br&gt;-upOneHitted: boolean&lt;br&gt;-up1isSolid: boolean&lt;br&gt;-upAccessCounter: int&lt;br&gt;-upTwoHitted: boolean&lt;br&gt;-up2isSolid: boolean&lt;br&gt;-upAccessCounter: int&lt;br&gt;-upTwoHitted: boolean&lt;br&gt;-up2isSolid: boolean&lt;br&gt;-playerOnExplosionCenterCounter: int&lt;br&gt;-enemyOnExplosionCenterCounter: int&lt;br&gt;-yellowOnExplosionCenterCounter: int&lt;br&gt;&lt;br&gt;&lt;br&gt;&lt;br&gt;&lt;br&gt;&lt;/font&gt;&lt;/td&gt;&lt;/tr&gt;&lt;tr&gt;&lt;td&gt;&lt;font color=&quot;#000000&quot;&gt;+Bomb(int, int, PImage)&lt;br&gt;+tick(): void&lt;br&gt;+draw(PApplet): void&lt;br&gt;+setImage(PImage): void&lt;br&gt;+setX(int): void&lt;br&gt;+setY(int): void&lt;br&gt;+getX(): int&lt;br&gt;+getY(): int&lt;br&gt;+bombCurrentState(): int&lt;br&gt;+setFinished(): void&lt;br&gt;+isFinishedBomb(): boolean&lt;br&gt;+close(): boolean&lt;br&gt;+hitOnPlayer(): void&lt;br&gt;&lt;br&gt;&lt;/font&gt;&lt;/td&gt;&lt;/tr&gt;&lt;/tbody&gt;&lt;/table&gt;" style="text;html=1;strokeColor=#d6b656;fillColor=#fff2cc;overflow=fill;shadow=0;labelBackgroundColor=none;" vertex="1" parent="1">
                    <mxGeometry x="-370" y="110" width="230" height="770" as="geometry"/>
                </mxCell>
                <mxCell id="90" value="&lt;div style=&quot;text-align: center&quot;&gt;&lt;font color=&quot;#000000&quot; size=&quot;1&quot;&gt;&lt;b style=&quot;font-size: 20px&quot;&gt;Player&lt;/b&gt;&lt;/font&gt;&lt;/div&gt;&lt;table border=&quot;1&quot; width=&quot;100%&quot; cellpadding=&quot;4&quot; style=&quot;width: 100% ; height: 100% ; border-collapse: collapse&quot;&gt;&lt;tbody&gt;&lt;tr&gt;&lt;td style=&quot;font-size: 13px&quot;&gt;&lt;font color=&quot;#000000&quot; style=&quot;font-size: 13px&quot;&gt;#x: int&lt;br&gt;#y: int&lt;br&gt;#sprite: PImage&lt;br&gt;#isAlive: boolean&lt;br&gt;#moveSpeed: int&lt;br&gt;#timeCounter&lt;br&gt;&lt;u&gt;+direction: int&lt;/u&gt;&lt;br&gt;-playerLife: int&lt;br&gt;&lt;br&gt;&lt;br&gt;&lt;br&gt;&lt;br&gt;&lt;/font&gt;&lt;/td&gt;&lt;/tr&gt;&lt;tr&gt;&lt;td&gt;&lt;font color=&quot;#000000&quot;&gt;+setPlayerLife(int): void&lt;br&gt;+Player(int,int,PImage,Bomb)&lt;br&gt;+setX(int): void&lt;br&gt;+setY(int): void&lt;br&gt;+getSprite(): PImage&lt;br&gt;+setAlive(boolean): void&lt;br&gt;+reducePlayerLife(): void&lt;br&gt;+getPlayerLife(): int&lt;br&gt;+getMoveSpeed(): int&lt;/font&gt;&lt;/td&gt;&lt;/tr&gt;&lt;/tbody&gt;&lt;/table&gt;" style="text;html=1;strokeColor=#d6b656;fillColor=#fff2cc;overflow=fill;shadow=0;labelBackgroundColor=none;" vertex="1" parent="1">
                    <mxGeometry x="-130" y="260" width="170" height="410" as="geometry"/>
                </mxCell>
                <mxCell id="101" style="edgeStyle=orthogonalEdgeStyle;rounded=0;orthogonalLoop=1;jettySize=auto;html=1;entryX=0.5;entryY=0;entryDx=0;entryDy=0;labelBackgroundColor=none;fontColor=#000000;strokeColor=#FFE6CC;" edge="1" parent="1" source="100" target="90">
                    <mxGeometry relative="1" as="geometry"/>
                </mxCell>
                <mxCell id="105" style="edgeStyle=orthogonalEdgeStyle;rounded=0;orthogonalLoop=1;jettySize=auto;html=1;entryX=0.5;entryY=0;entryDx=0;entryDy=0;labelBackgroundColor=none;fontColor=#000000;strokeColor=#FFE6CC;" edge="1" parent="1" source="100" target="104">
                    <mxGeometry relative="1" as="geometry"/>
                </mxCell>
                <mxCell id="100" value="&lt;div style=&quot;text-align: center&quot;&gt;&lt;font color=&quot;#000000&quot;&gt;&lt;b&gt;&amp;lt;Interface&amp;gt;&lt;/b&gt;&lt;/font&gt;&lt;/div&gt;&lt;div style=&quot;text-align: center&quot;&gt;&lt;font color=&quot;#000000&quot;&gt;&lt;b&gt;PlayerLife&lt;/b&gt;&lt;/font&gt;&lt;/div&gt;&lt;table border=&quot;1&quot; width=&quot;100%&quot; cellpadding=&quot;4&quot; style=&quot;width: 100% ; height: 100% ; border-collapse: collapse&quot;&gt;&lt;tbody&gt;&lt;tr&gt;&lt;td&gt;&lt;font color=&quot;#000000&quot;&gt;+tick(): void&lt;/font&gt;&lt;br style=&quot;color: rgb(0 , 0 , 0) ; font-family: &amp;#34;helvetica&amp;#34; ; font-size: 11px&quot;&gt;&lt;span style=&quot;color: rgb(0 , 0 , 0) ; font-family: &amp;#34;helvetica&amp;#34; ; font-size: 11px&quot;&gt;+isAlive(): boolean&lt;/span&gt;&lt;br style=&quot;color: rgb(0 , 0 , 0) ; font-family: &amp;#34;helvetica&amp;#34; ; font-size: 11px&quot;&gt;&lt;span style=&quot;color: rgb(0 , 0 , 0) ; font-family: &amp;#34;helvetica&amp;#34; ; font-size: 11px&quot;&gt;+draw(PApplet): void&lt;/span&gt;&lt;br style=&quot;color: rgb(0 , 0 , 0) ; font-family: &amp;#34;helvetica&amp;#34; ; font-size: 11px&quot;&gt;&lt;span style=&quot;color: rgb(0 , 0 , 0) ; font-family: &amp;#34;helvetica&amp;#34; ; font-size: 11px&quot;&gt;+getHeight(): intd&lt;/span&gt;&lt;br style=&quot;color: rgb(0 , 0 , 0) ; font-family: &amp;#34;helvetica&amp;#34; ; font-size: 11px&quot;&gt;&lt;span style=&quot;color: rgb(0 , 0 , 0) ; font-family: &amp;#34;helvetica&amp;#34; ; font-size: 11px&quot;&gt;+getWidth(): int&lt;br&gt;&lt;/span&gt;&lt;font color=&quot;#000000&quot;&gt;+setSprite(PImage):void&lt;br&gt;+getX(): int&lt;/font&gt;&lt;br style=&quot;color: rgb(0 , 0 , 0) ; font-family: &amp;#34;helvetica&amp;#34; ; font-size: 11px&quot;&gt;&lt;font color=&quot;#000000&quot; style=&quot;font-size: 11px&quot;&gt;+getY(): int&lt;br&gt;&lt;br&gt;&lt;br&gt;&lt;br&gt;&lt;/font&gt;&lt;/td&gt;&lt;/tr&gt;&lt;tr&gt;&lt;td&gt;&lt;br&gt;&lt;/td&gt;&lt;/tr&gt;&lt;/tbody&gt;&lt;/table&gt;" style="text;html=1;strokeColor=#d6b656;fillColor=#fff2cc;overflow=fill;shadow=0;labelBackgroundColor=none;" vertex="1" parent="1">
                    <mxGeometry x="-50" y="80" width="170" height="150" as="geometry"/>
                </mxCell>
                <mxCell id="108" style="edgeStyle=orthogonalEdgeStyle;rounded=0;orthogonalLoop=1;jettySize=auto;html=1;entryX=0.5;entryY=0;entryDx=0;entryDy=0;labelBackgroundColor=none;fontColor=#000000;strokeColor=#FFE6CC;" edge="1" parent="1" source="104" target="106">
                    <mxGeometry relative="1" as="geometry"/>
                </mxCell>
                <mxCell id="109" style="edgeStyle=orthogonalEdgeStyle;rounded=0;orthogonalLoop=1;jettySize=auto;html=1;entryX=0.5;entryY=0;entryDx=0;entryDy=0;labelBackgroundColor=none;fontColor=#000000;strokeColor=#FFE6CC;" edge="1" parent="1" source="104" target="107">
                    <mxGeometry relative="1" as="geometry"/>
                </mxCell>
                <mxCell id="104" value="&lt;div style=&quot;text-align: center&quot;&gt;&lt;font color=&quot;#000000&quot; size=&quot;1&quot;&gt;&lt;b style=&quot;font-size: 20px&quot;&gt;Enemy&lt;/b&gt;&lt;/font&gt;&lt;/div&gt;&lt;table border=&quot;1&quot; width=&quot;100%&quot; cellpadding=&quot;4&quot; style=&quot;width: 100% ; height: 100% ; border-collapse: collapse&quot;&gt;&lt;tbody&gt;&lt;tr&gt;&lt;td style=&quot;font-size: 13px&quot;&gt;&lt;font color=&quot;#000000&quot; style=&quot;font-size: 13px&quot;&gt;#x: int&lt;br&gt;#y: int&lt;br&gt;#sprite: PImage&lt;br&gt;#isAlive: boolean&lt;br&gt;#moveSpeed: int&lt;br&gt;#timeCounter&lt;br&gt;#EnemyLife: int&lt;br&gt;&lt;br&gt;&lt;br&gt;&lt;br&gt;&lt;br&gt;&lt;/font&gt;&lt;/td&gt;&lt;/tr&gt;&lt;tr&gt;&lt;td&gt;&lt;font color=&quot;#000000&quot;&gt;+setEnemyLife(int): void&lt;br&gt;+Enemy(int,int,PImage,Bomb)&lt;br&gt;+setX(int): void&lt;br&gt;+setY(int): void&lt;br&gt;+reduceEnemyLife(): void&lt;br&gt;+dead(): void&lt;br&gt;&lt;br&gt;&lt;/font&gt;&lt;/td&gt;&lt;/tr&gt;&lt;/tbody&gt;&lt;/table&gt;" style="text;html=1;strokeColor=#d6b656;fillColor=#fff2cc;overflow=fill;shadow=0;labelBackgroundColor=none;" vertex="1" parent="1">
                    <mxGeometry x="50" y="270" width="170" height="310" as="geometry"/>
                </mxCell>
                <mxCell id="106" value="&lt;div style=&quot;text-align: center&quot;&gt;&lt;b&gt;&lt;font style=&quot;font-size: 20px&quot;&gt;Yellow&lt;/font&gt;&lt;/b&gt;&lt;/div&gt;&lt;table border=&quot;1&quot; width=&quot;100%&quot; cellpadding=&quot;4&quot; style=&quot;width: 100% ; height: 100% ; border-collapse: collapse&quot;&gt;&lt;tbody&gt;&lt;tr&gt;&lt;td style=&quot;font-size: 13px&quot;&gt;&lt;font style=&quot;font-size: 13px&quot;&gt;-facingDirection: int&lt;br&gt;&lt;br&gt;&lt;br&gt;&lt;br&gt;&lt;br&gt;&lt;/font&gt;&lt;/td&gt;&lt;/tr&gt;&lt;tr&gt;&lt;td&gt;&lt;font&gt;+tick(): void&lt;br&gt;+setYellowX(int):void&lt;br&gt;+setYellowY(int): void&lt;br&gt;+getFacing(): int&lt;br&gt;+setFacing(int): void&lt;br&gt;&lt;br&gt;&lt;/font&gt;&lt;/td&gt;&lt;/tr&gt;&lt;/tbody&gt;&lt;/table&gt;" style="text;html=1;strokeColor=#d6b656;fillColor=#fff2cc;overflow=fill;shadow=0;labelBackgroundColor=none;fontColor=#000000;" vertex="1" parent="1">
                    <mxGeometry x="-40" y="770" width="180" height="210" as="geometry"/>
                </mxCell>
                <mxCell id="107" value="&lt;div style=&quot;text-align: center&quot;&gt;&lt;span&gt;Pl&lt;/span&gt;&lt;font color=&quot;#000000&quot; size=&quot;1&quot;&gt;&lt;b style=&quot;font-size: 20px&quot;&gt;Red&lt;/b&gt;&lt;/font&gt;&lt;/div&gt;&lt;table border=&quot;1&quot; width=&quot;100%&quot; cellpadding=&quot;4&quot; style=&quot;width: 100% ; height: 100% ; border-collapse: collapse&quot;&gt;&lt;tbody&gt;&lt;tr&gt;&lt;td style=&quot;font-size: 13px&quot;&gt;&lt;font color=&quot;#000000&quot; style=&quot;font-size: 13px&quot;&gt;-facingDirection: int&lt;br&gt;-rand: Random&lt;br&gt;&lt;br&gt;&lt;br&gt;&lt;br&gt;&lt;br&gt;&lt;/font&gt;&lt;/td&gt;&lt;/tr&gt;&lt;tr&gt;&lt;td&gt;&lt;font color=&quot;#000000&quot;&gt;+tick()&lt;br&gt;+setRedX(int)&lt;br&gt;+setRedY(int)&lt;br&gt;+getFacing(): int&lt;br&gt;+setFacing(int): void&lt;br&gt;&lt;br&gt;&lt;/font&gt;&lt;/td&gt;&lt;/tr&gt;&lt;/tbody&gt;&lt;/table&gt;" style="text;html=1;strokeColor=#d6b656;fillColor=#fff2cc;overflow=fill;shadow=0;labelBackgroundColor=none;" vertex="1" parent="1">
                    <mxGeometry x="160" y="770" width="170" height="210" as="geometry"/>
                </mxCell>
                <mxCell id="118" style="edgeStyle=orthogonalEdgeStyle;rounded=0;orthogonalLoop=1;jettySize=auto;html=1;entryX=0.651;entryY=0.032;entryDx=0;entryDy=0;entryPerimeter=0;labelBackgroundColor=none;fontColor=#000000;strokeColor=#FFE6CC;" edge="1" parent="1" source="110" target="113">
                    <mxGeometry relative="1" as="geometry"/>
                </mxCell>
                <mxCell id="119" style="edgeStyle=orthogonalEdgeStyle;rounded=0;orthogonalLoop=1;jettySize=auto;html=1;labelBackgroundColor=none;fontColor=#000000;strokeColor=#FFE6CC;" edge="1" parent="1" source="110" target="116">
                    <mxGeometry relative="1" as="geometry"/>
                </mxCell>
                <mxCell id="120" style="edgeStyle=orthogonalEdgeStyle;rounded=0;orthogonalLoop=1;jettySize=auto;html=1;labelBackgroundColor=none;fontColor=#000000;strokeColor=#FFE6CC;" edge="1" parent="1" source="110" target="114">
                    <mxGeometry relative="1" as="geometry"/>
                </mxCell>
                <mxCell id="121" style="edgeStyle=orthogonalEdgeStyle;rounded=0;orthogonalLoop=1;jettySize=auto;html=1;entryX=0;entryY=0.5;entryDx=0;entryDy=0;labelBackgroundColor=none;fontColor=#000000;strokeColor=#FFE6CC;" edge="1" parent="1" source="110" target="117">
                    <mxGeometry relative="1" as="geometry"/>
                </mxCell>
                <mxCell id="122" style="edgeStyle=orthogonalEdgeStyle;rounded=0;orthogonalLoop=1;jettySize=auto;html=1;entryX=0.009;entryY=0.608;entryDx=0;entryDy=0;entryPerimeter=0;labelBackgroundColor=none;fontColor=#000000;strokeColor=#FFE6CC;" edge="1" parent="1" source="110" target="115">
                    <mxGeometry relative="1" as="geometry"/>
                </mxCell>
                <mxCell id="110" value="&lt;div style=&quot;text-align: center&quot;&gt;&lt;font color=&quot;#000000&quot;&gt;&lt;span style=&quot;font-size: 20px&quot;&gt;&lt;b&gt;Types&lt;/b&gt;&lt;/span&gt;&lt;/font&gt;&lt;/div&gt;&lt;table border=&quot;1&quot; width=&quot;100%&quot; cellpadding=&quot;4&quot; style=&quot;width: 100% ; height: 100% ; border-collapse: collapse&quot;&gt;&lt;tbody&gt;&lt;tr&gt;&lt;td style=&quot;font-size: 13px&quot;&gt;&lt;font color=&quot;#000000&quot; style=&quot;font-size: 13px&quot;&gt;#x: int&lt;br&gt;#y: int&lt;br&gt;#sprite: PImage&lt;br&gt;&lt;br&gt;&lt;br&gt;&lt;br&gt;&lt;br&gt;&lt;br&gt;&lt;/font&gt;&lt;/td&gt;&lt;/tr&gt;&lt;tr&gt;&lt;td&gt;&lt;font color=&quot;#000000&quot;&gt;+Types(int,int,PImage)&lt;br&gt;+tick(): void&lt;br&gt;+draw(PApplet): void&lt;br&gt;+getX(): int&lt;br&gt;+getY(): int&lt;br&gt;+getWidth():int&lt;br&gt;+getHeight(): int&lt;br&gt;&lt;br&gt;&lt;br&gt;&lt;/font&gt;&lt;/td&gt;&lt;/tr&gt;&lt;/tbody&gt;&lt;/table&gt;" style="text;html=1;strokeColor=#d6b656;fillColor=#fff2cc;overflow=fill;shadow=0;labelBackgroundColor=none;" vertex="1" parent="1">
                    <mxGeometry x="330" y="20" width="170" height="260" as="geometry"/>
                </mxCell>
                <mxCell id="113" value="&lt;div style=&quot;text-align: center&quot;&gt;&lt;font color=&quot;#000000&quot;&gt;&lt;span style=&quot;font-size: 20px&quot;&gt;&lt;b&gt;Broken&lt;/b&gt;&lt;/span&gt;&lt;/font&gt;&lt;/div&gt;&lt;table border=&quot;1&quot; width=&quot;100%&quot; cellpadding=&quot;4&quot; style=&quot;width: 100% ; height: 100% ; border-collapse: collapse&quot;&gt;&lt;tbody&gt;&lt;tr&gt;&lt;td style=&quot;font-size: 13px&quot;&gt;&lt;font color=&quot;#000000&quot; style=&quot;font-size: 13px&quot;&gt;+Broken(int,int,PImage)&lt;br&gt;&lt;br&gt;&lt;br&gt;&lt;br&gt;&lt;br&gt;&lt;br&gt;&lt;/font&gt;&lt;/td&gt;&lt;/tr&gt;&lt;tr&gt;&lt;td&gt;&lt;font color=&quot;#000000&quot;&gt;&lt;br&gt;&lt;br&gt;&lt;br&gt;&lt;/font&gt;&lt;/td&gt;&lt;/tr&gt;&lt;/tbody&gt;&lt;/table&gt;" style="text;html=1;strokeColor=#d6b656;fillColor=#fff2cc;overflow=fill;shadow=0;labelBackgroundColor=none;" vertex="1" parent="1">
                    <mxGeometry x="230" y="365" width="170" height="50" as="geometry"/>
                </mxCell>
                <mxCell id="114" value="&lt;div style=&quot;text-align: center&quot;&gt;&lt;font color=&quot;#000000&quot;&gt;&lt;span style=&quot;font-size: 20px&quot;&gt;&lt;b&gt;Empty&lt;/b&gt;&lt;/span&gt;&lt;/font&gt;&lt;/div&gt;&lt;table border=&quot;1&quot; width=&quot;100%&quot; cellpadding=&quot;4&quot; style=&quot;width: 100% ; height: 100% ; border-collapse: collapse&quot;&gt;&lt;tbody&gt;&lt;tr&gt;&lt;td style=&quot;font-size: 13px&quot;&gt;&lt;font color=&quot;#000000&quot; style=&quot;font-size: 13px&quot;&gt;+Empty(int,int,PImage)&lt;br&gt;&lt;br&gt;&lt;br&gt;&lt;br&gt;&lt;br&gt;&lt;br&gt;&lt;/font&gt;&lt;/td&gt;&lt;/tr&gt;&lt;tr&gt;&lt;td&gt;&lt;font color=&quot;#000000&quot;&gt;&lt;br&gt;&lt;br&gt;&lt;br&gt;&lt;/font&gt;&lt;/td&gt;&lt;/tr&gt;&lt;/tbody&gt;&lt;/table&gt;" style="text;html=1;strokeColor=#d6b656;fillColor=#fff2cc;overflow=fill;shadow=0;labelBackgroundColor=none;" vertex="1" parent="1">
                    <mxGeometry x="550" y="60" width="170" height="50" as="geometry"/>
                </mxCell>
                <mxCell id="115" value="&lt;div style=&quot;text-align: center&quot;&gt;&lt;font color=&quot;#000000&quot;&gt;&lt;span style=&quot;font-size: 20px&quot;&gt;&lt;b&gt;Goal&lt;/b&gt;&lt;/span&gt;&lt;/font&gt;&lt;/div&gt;&lt;table border=&quot;1&quot; width=&quot;100%&quot; cellpadding=&quot;4&quot; style=&quot;width: 100% ; height: 100% ; border-collapse: collapse&quot;&gt;&lt;tbody&gt;&lt;tr&gt;&lt;td style=&quot;font-size: 13px&quot;&gt;&lt;font color=&quot;#000000&quot; style=&quot;font-size: 13px&quot;&gt;+Goal(int,int,PImage)&lt;br&gt;+getX(): int&lt;br&gt;+getY(): int&lt;br&gt;&lt;br&gt;&lt;br&gt;&lt;br&gt;&lt;br&gt;&lt;br&gt;&lt;/font&gt;&lt;/td&gt;&lt;/tr&gt;&lt;tr&gt;&lt;td&gt;&lt;font color=&quot;#000000&quot;&gt;&lt;br&gt;&lt;br&gt;&lt;br&gt;&lt;/font&gt;&lt;/td&gt;&lt;/tr&gt;&lt;/tbody&gt;&lt;/table&gt;" style="text;html=1;strokeColor=#d6b656;fillColor=#fff2cc;overflow=fill;shadow=0;labelBackgroundColor=none;" vertex="1" parent="1">
                    <mxGeometry x="550" y="250" width="170" height="70" as="geometry"/>
                </mxCell>
                <mxCell id="116" value="&lt;div style=&quot;text-align: center&quot;&gt;&lt;font color=&quot;#000000&quot;&gt;&lt;span style=&quot;font-size: 20px&quot;&gt;&lt;b&gt;Icons&lt;/b&gt;&lt;/span&gt;&lt;/font&gt;&lt;/div&gt;&lt;table border=&quot;1&quot; width=&quot;100%&quot; cellpadding=&quot;4&quot; style=&quot;width: 100% ; height: 100% ; border-collapse: collapse&quot;&gt;&lt;tbody&gt;&lt;tr&gt;&lt;td style=&quot;font-size: 13px&quot;&gt;&lt;font color=&quot;#000000&quot; style=&quot;font-size: 13px&quot;&gt;+Icons(int,int,PImage)&lt;br&gt;&lt;br&gt;&lt;br&gt;&lt;br&gt;&lt;br&gt;&lt;br&gt;&lt;/font&gt;&lt;/td&gt;&lt;/tr&gt;&lt;tr&gt;&lt;td&gt;&lt;font color=&quot;#000000&quot;&gt;&lt;br&gt;&lt;br&gt;&lt;br&gt;&lt;/font&gt;&lt;/td&gt;&lt;/tr&gt;&lt;/tbody&gt;&lt;/table&gt;" style="text;html=1;strokeColor=#d6b656;fillColor=#fff2cc;overflow=fill;shadow=0;labelBackgroundColor=none;" vertex="1" parent="1">
                    <mxGeometry x="413" y="370" width="170" height="45" as="geometry"/>
                </mxCell>
                <mxCell id="117" value="&lt;div style=&quot;text-align: center&quot;&gt;&lt;font color=&quot;#000000&quot;&gt;&lt;span style=&quot;font-size: 20px&quot;&gt;&lt;b&gt;Solid&lt;/b&gt;&lt;/span&gt;&lt;/font&gt;&lt;/div&gt;&lt;table border=&quot;1&quot; width=&quot;100%&quot; cellpadding=&quot;4&quot; style=&quot;width: 100% ; height: 100% ; border-collapse: collapse&quot;&gt;&lt;tbody&gt;&lt;tr&gt;&lt;td style=&quot;font-size: 13px&quot;&gt;&lt;font color=&quot;#000000&quot; style=&quot;font-size: 13px&quot;&gt;+Solid(int,int,PImage)&lt;br&gt;&lt;br&gt;&lt;br&gt;&lt;br&gt;&lt;br&gt;&lt;br&gt;&lt;/font&gt;&lt;/td&gt;&lt;/tr&gt;&lt;tr&gt;&lt;td&gt;&lt;font color=&quot;#000000&quot;&gt;&lt;br&gt;&lt;br&gt;&lt;br&gt;&lt;/font&gt;&lt;/td&gt;&lt;/tr&gt;&lt;/tbody&gt;&lt;/table&gt;" style="text;html=1;strokeColor=#d6b656;fillColor=#fff2cc;overflow=fill;shadow=0;labelBackgroundColor=none;" vertex="1" parent="1">
                    <mxGeometry x="550" y="170" width="170" height="40" as="geometry"/>
                </mxCell>
            </root>
        </mxGraphModel>
    </diagram>
</mxfile>